<svg id="Icons_MEDIUM_Color_Money" data-name="Icons / MEDIUM / Color / Money" xmlns="http://www.w3.org/2000/svg" width="90" height="90" viewBox="0 0 90 90">
  <g id="Group_21" data-name="Group 21" transform="translate(1 1)">
    <path id="Path" d="M43.668,43.3a13.86,13.86,0,0,1-4.79-.85L2.168,26.163a3.75,3.75,0,0,1-1.81-5l.52-1.38.06-.14a7.06,7.06,0,0,1,7.52-3.83l23.22,4.07a9.38,9.38,0,0,1,5.61-9.46l19-8.33a25.13,25.13,0,0,1,20.08,0l10.69,4.67a1.5,1.5,0,0,1,.9,1.38v24.74a1.5,1.5,0,0,1-1.5,1.5h-8.59a16.54,16.54,0,0,0-4.84.72l-24.91,7.51A13.67,13.67,0,0,1,43.668,43.3Z" transform="translate(0.002 44.67)" fill="#f8c8bb"/>
    <path id="Path-2" data-name="Path" d="M36.79,11.89l-4-10.42L26.31,0a9.35,9.35,0,0,0-1.1,5.31L2.8,1.4a4.23,4.23,0,0,0-2.2.22h0A.94.94,0,0,0,.72,3.41Z" transform="translate(6.461 59.223)" fill="#fbdbd1"/>
    <path id="Path-3" data-name="Path" d="M29.846.4,5.616,5.831a8.65,8.65,0,0,0-5.15,3.42h0a2.46,2.46,0,0,0,1.94,3.9h0a13.67,13.67,0,0,0,4.45-.74L31.776,4.9a16.54,16.54,0,0,1,4.84-.72h8.66a1.5,1.5,0,0,0,1.5-1.45V0h-9.84a56.13,56.13,0,0,0-7.09.4Z" transform="translate(41.225 74.821)" fill="#f6b6a4"/>
    <path id="Path-4" data-name="Path" d="M44.121,52.663a1.47,1.47,0,0,1-.75-.21L.751,27.863a1.56,1.56,0,0,1-.7-.91,1.51,1.51,0,0,1,.15-1.14L14.691.723a1.5,1.5,0,0,1,2-.54l42.61,24.6a1.48,1.48,0,0,1,.55,2l-14.48,25.09a1.5,1.5,0,0,1-1.25.79Z" transform="translate(0)" fill="#58a060"/>
    <path id="Path-5" data-name="Path" d="M4.131,28.083l15.24-26.39L16.741.183a1.5,1.5,0,0,0-2,.54L.2,25.813a1.51,1.51,0,0,0-.15,1.14,1.56,1.56,0,0,0,.7.91l3.93,2.27a1.51,1.51,0,0,1-.55-2.05Z" transform="translate(0 0)" fill="#61a568"/>
    <path id="Path-6" data-name="Path" d="M44.1,52.611a1.46,1.46,0,0,1-.75-.2L.73,27.831a1.5,1.5,0,0,1-.55-2L14.67.751A1.5,1.5,0,0,1,16.72.2L59.33,24.8a1.5,1.5,0,0,1,.55,2.05L45.4,51.831a1.5,1.5,0,0,1-1.3.78Z" transform="translate(4.48 15.722)" fill="#69aa70"/>
    <path id="Path-7" data-name="Path" d="M6.76,13.52a6.76,6.76,0,1,1,6.76-6.76A6.76,6.76,0,0,1,6.76,13.52Z" transform="translate(27.751 35.233)" fill="#58a060"/>
    <path id="Path-8" data-name="Path" d="M4.11,28.111,19.35,1.721,16.72.2a1.5,1.5,0,0,0-2.05.55L.18,25.831a1.5,1.5,0,0,0,.55,2L4.66,30.1a1.5,1.5,0,0,1-.55-1.99Z" transform="translate(4.48 15.652)" fill="#71ae78"/>
    <path id="Path-9" data-name="Path" d="M7.216,26.8a7.08,7.08,0,0,1-6.75-4.86,9.38,9.38,0,0,1,5.18-11.52l19-8.33a25.13,25.13,0,0,1,20.08,0l10.69,4.67a1.5,1.5,0,0,1,.9,1.38v11.29a1.5,1.5,0,0,1-1.5,1.5h-20l-26.41,5.76A7.85,7.85,0,0,1,7.216,26.8Z" transform="translate(31.644 44.65)" fill="#f8c8bb"/>
    <path id="Path-10" data-name="Path" d="M19.854,6.9c6.39-2.8,17.35-4,26.71-3.12L42.7,2.093a25.13,25.13,0,0,0-20.08,0l-19,8.33a9.28,9.28,0,0,0-3.3,2.4,1.28,1.28,0,0,0,1.52,2Z" transform="translate(33.697 44.65)" fill="#fbdbd1"/>
    <path id="Path-11" data-name="Path" d="M34.881.14,8.471,5.9a7.85,7.85,0,0,1-1.26.11A7.08,7.08,0,0,1,.461,1.15,11.38,11.38,0,0,1,.171,0a9.35,9.35,0,0,0,.29,4.68,7.06,7.06,0,0,0,6.72,4.86,7.26,7.26,0,0,0,1.22-.1l.24-.06,21.71-7.53A39.79,39.79,0,0,1,35.171.51l1.65-.34Z" transform="translate(31.65 65.413)" fill="#f6b6a4"/>
  </g>
</svg>
