<svg id="Icons_MEDIUM_Color_Person" data-name="Icons / MEDIUM / Color / Person" xmlns="http://www.w3.org/2000/svg" width="90" height="90" viewBox="0 0 90 90">
  <g id="Group_18" data-name="Group 18" transform="translate(1 1)">
    <path id="Path" d="M56.74,66.834H49.97c-2.8,0-4.32-.93-5.25-3.2l-1.05-2.29a2.87,2.87,0,0,0-2.43-1.36H33.4v3.18a3.68,3.68,0,0,1-3.67,3.67H18A3.67,3.67,0,0,1,14.83,65l-3-5.15c-.53-.91-1.2-2-2-3.23C5.91,50.374,0,40.934,0,31.534c0-8.86,3.09-16.62,8.93-22.43A32.15,32.15,0,0,1,31.84,0h.27A36.33,36.33,0,0,1,50.55,5a.7.7,0,0,0,.66,0l.76-.44c4.52-2.59,9.93-2.21,15.66,1.09a1.51,1.51,0,0,1,.55,2l-5.73,9.93,2.87,5a8.44,8.44,0,0,0,7.28,4.2h.45a1.51,1.51,0,0,1,1.3.76l.22.38a11.45,11.45,0,0,1,0,11.41l-.22.38a12.22,12.22,0,0,1-9.36,6,.62.62,0,0,0-.48.32l-4,6.53a.6.6,0,0,0-.07.3v10.21a3.67,3.67,0,0,1-3.7,3.76Z" transform="translate(11.92 21.489)" fill="#f9d1c6"/>
    <path id="Path-2" data-name="Path" d="M1.506,5.78a1.5,1.5,0,0,1-.68-2.84,25.19,25.19,0,0,1,23.62,0,1.5,1.5,0,1,1-1.34,2.68A27.61,27.61,0,0,0,12.626,3,27,27,0,0,0,2.176,5.62,1.47,1.47,0,0,1,1.506,5.78Z" transform="translate(31.464 28.133)" fill="#2e4369"/>
    <path id="Shape" d="M5.22,17.958a5.244,5.244,0,0,1-4.07-1.931c-.09-.1-.16-.2-.229-.29a4.839,4.839,0,0,1-.36-5.1,5.091,5.091,0,0,1,4.53-2.78h.15l-3.16-5.62A1.5,1.5,0,1,1,4.7.768l4,7.089h4.82a1.5,1.5,0,0,1,0,3h-3.25a5.29,5.29,0,0,1-2.21,6.3,5.426,5.426,0,0,1-2.836.8Z" transform="translate(0 45.955)" fill="#fbcccc"/>
    <path id="Path-3" data-name="Path" d="M0,18.132a12.23,12.23,0,0,0,8.79-5.95l.22-.38a11.45,11.45,0,0,0,0-11.41L8.79.012C8.56-.458,6.99,12.642,0,18.132Z" transform="translate(77.47 49.11)" fill="#f8c8bb"/>
    <path id="Path-4" data-name="Path" d="M12.44,13.19l-.25-.44,5-8.75C8.49,5.44.63.3,0,0,7.61,4.02,10.96,10.73,12.44,13.19Z" transform="translate(62.17 26.433)" fill="#f6b6a4"/>
    <path id="Path-5" data-name="Path" d="M4.95,22.77C3.82,14.04,5.42,6.26,9.58,0h0C3.32,5.87,0,13.86,0,23c0,9.4,5.91,18.84,9.83,25.09.78,1.25,1.45,2.32,2,3.23l3,5.15C15.43,57.65,6.36,33.57,4.95,22.77Z" transform="translate(11.97 29.973)" fill="#fbdbd1"/>
    <path id="Path-6" data-name="Path" d="M.13,5.67A2.87,2.87,0,0,1,2.56,7.03L3.61,9.32a4.53,4.53,0,0,0,3.86,3.09C10.09,7.92,14.77,2.88,17.61,0,11.16,5.59,0,5.67,0,5.67Z" transform="translate(53.03 75.803)" fill="#f6b6a4"/>
    <path id="Path-7" data-name="Path" d="M14.1,28.2A14.1,14.1,0,1,1,28.2,14.11,14.1,14.1,0,0,1,14.1,28.2Z" transform="translate(30 0.342)" fill="#d39e00"/>
    <path id="Path-8" data-name="Path" d="M9.431,0a10.65,10.65,0,1,0,8.81,3.11A14.11,14.11,0,0,0,9.431,0Z" transform="translate(34.669 0.353)" fill="#fdd235"/>
    <path id="Path-9" data-name="Path" d="M16,.353a13,13,0,0,0-7.9,24.69l13.56-23.49A14,14,0,0,0,16,.353Z" transform="translate(28.099)" fill="#fee072"/>
    <path id="Path-10" data-name="Path" d="M5.24,0a5.23,5.23,0,1,0,3.7,1.528A5.24,5.24,0,0,0,5.24,0Z" transform="translate(56.65 39.123)" fill="#deedf2"/>
    <path id="Path-11" data-name="Path" d="M2.168.005c-2.89,0-2.89,10.47,0,10.47a5.24,5.24,0,1,0,0-10.47Z" transform="translate(59.723 39.118)" fill="#d3e7ed"/>
    <path id="Path-12" data-name="Path" d="M2.23,0A2.24,2.24,0,1,1,0,2.23,2.24,2.24,0,0,1,2.23,0" transform="translate(61.66 42.123)" fill="#586987"/>
  </g>
</svg>
