<svg id="Icons_MEDIUM_Color_Calculator" data-name="Icons / MEDIUM / Color / Calculator" xmlns="http://www.w3.org/2000/svg" width="79" height="68" viewBox="0 0 79 68">
  <g id="Group_4" data-name="Group 4" transform="translate(13.167 0.756)">
    <path id="Path" d="M37.183,46.217H9.515A1.235,1.235,0,0,1,8.2,45.084V40.77a2.536,2.536,0,0,0-.439-1.42L.176,28.069A1.035,1.035,0,0,1,0,27.5V1.133A1.235,1.235,0,0,1,1.317,0h9.84c21.751,0,32.32,8.2,32.32,25.062V40.77c0,3-2.812,5.431-6.294,5.448Z" transform="translate(9.331 20.355)" fill="#f8c8bb"/>
    <path id="Path-2" data-name="Path" d="M27.94,26.732V2.267A53.921,53.921,0,0,0,11.157,0H1.317A1.235,1.235,0,0,0,0,1.133V27.5a1.035,1.035,0,0,0,.176.567l4.968,7.382H17.7a11.007,11.007,0,0,0,7.247-2.51A8.129,8.129,0,0,0,27.94,26.732Z" transform="translate(9.366 20.385)" fill="#f4a48d"/>
    <path id="Path-3" data-name="Path" d="M33.443,5.531c0-3.04-2.85-5.51-6.381-5.531H6.425C2.879,0,0,2.478,0,5.531V47.086a5.066,5.066,0,0,0,1.9,3.856,6.858,6.858,0,0,0,4.528,1.531H27.062a6.858,6.858,0,0,0,4.528-1.531,5.066,5.066,0,0,0,1.9-3.856Z" transform="translate(0 0)" fill="#435678"/>
    <path id="Path-4" data-name="Path" d="M30.178.718A7.244,7.244,0,0,0,27.062,0H6.425C2.879,0,0,2.478,0,5.531V45.7Z" transform="translate(0 0)" fill="#435678"/>
    <path id="Path-5" data-name="Path" d="M24.429,47.94H3.792a4.02,4.02,0,0,1-2.659-.874A2.971,2.971,0,0,1,0,44.82V3.264A3.566,3.566,0,0,1,3.792,0H24.429a3.566,3.566,0,0,1,3.792,3.264V44.82a2.971,2.971,0,0,1-1.133,2.247A4.02,4.02,0,0,1,24.429,47.94Z" transform="translate(2.633 2.297)" fill="#deedf2"/>
    <path id="Path-6" data-name="Path" d="M26.184.423A4.3,4.3,0,0,0,24.429,0H3.792A3.566,3.566,0,0,0,0,3.264V39.531Z" transform="translate(2.633 2.267)" fill="#ebf4f7"/>
    <path id="Path-7" data-name="Path" d="M1.317,2.248a1.432,1.432,0,0,1-.93-.332A1.081,1.081,0,0,1,0,1.115a1.06,1.06,0,0,1,.386-.8,1.536,1.536,0,0,1,1.861,0A1.027,1.027,0,0,1,2.529,1.55a1.34,1.34,0,0,1-1.212.706Z" transform="translate(9.664 5.542)" fill="#2e4369"/>
    <path id="Path-8" data-name="Path" d="M9.067,2.267H1.317A1.235,1.235,0,0,1,0,1.133,1.235,1.235,0,0,1,1.317,0H9.067a1.235,1.235,0,0,1,1.317,1.133A1.235,1.235,0,0,1,9.067,2.267Z" transform="translate(14.062 5.523)" fill="#2e4369"/>
    <path id="Path-9" data-name="Path" d="M17.926,31.348A16.9,16.9,0,0,1,14.9,29.633a13.345,13.345,0,0,1-4.8-9.286L.739,6.883A3.919,3.919,0,0,1,.4,2.871,5.034,5.034,0,0,1,3.952.257a11.419,11.419,0,0,1,6.873.65,9.882,9.882,0,0,1,2.528,1.556l13.421,11.56C45.129,31.809,25.9,34.294,17.926,31.348Z" transform="translate(13.454 25.999)" fill="#f8c8bb"/>
    <path id="Path-10" data-name="Path" d="M30.336,34.681h0a26.275,26.275,0,0,1-10.683-2.267c-5.688-2.592-9.392-7.4-9.577-12.361L.807,6.718A4.088,4.088,0,0,1,.228,2.94,4.912,4.912,0,0,1,3.827.008c.614-.136-.878,1.443-1.44,3.022A2.98,2.98,0,0,0,3.028,5.5L6.153,9.989A46.321,46.321,0,0,0,21.277,23.5c5.047,2.879,10.375,5.41,10.375,10.072A1.232,1.232,0,0,1,30.336,34.681Z" transform="translate(13.474 26.293)" fill="#f5ad99"/>
  </g>
</svg>
