<svg xmlns="http://www.w3.org/2000/svg" width="88" height="88.009" viewBox="0 0 88 88.009">
  <g id="Group_5" data-name="Group 5" transform="translate(0 0)">
    <path id="Path" d="M80.6,25.5H7.41A7.42,7.42,0,0,1,0,18.1V14.55C0,6.55,10.21,0,22.75,0a52.16,52.16,0,0,1,8.07,1l1.69.29c2,.32,4.08.76,6.11,1.29l1,.27A16.51,16.51,0,0,0,44,3.66a27.89,27.89,0,0,0,5.65-1.11L51.8,2A63.63,63.63,0,0,1,65.25,0C78.44,0,88,6.12,88,14.55V18.1A7.41,7.41,0,0,1,80.6,25.5Z" transform="translate(0 62.509)" fill="#2e4369"/>
    <path id="Path-2" data-name="Path" d="M8.77.755A2.27,2.27,0,0,0,6.5.075a29,29,0,0,1-4.61.85A10.11,10.11,0,0,1,0,.725l.91.22c.34.08.67.17,1,.27a16.9,16.9,0,0,0,4.38.8C9.14,2.015,9.23,1.355,8.77.755Z" transform="translate(42.16 65.194)" fill="#586987"/>
    <path id="Path-3" data-name="Path" d="M40,2.96l-.38-.11-1-.27a54.442,54.442,0,0,0-6.11-1.29L30.82,1a52.16,52.16,0,0,0-8.07-1C10.21,0,0,6.53,0,14.55V18.1a7.42,7.42,0,0,0,7.41,7.4H26.93Z" transform="translate(0 62.459)" fill="#394d71"/>
    <path id="Path-4" data-name="Path" d="M38.62,2.58a54.442,54.442,0,0,0-6.11-1.29L30.82,1a52.16,52.16,0,0,0-8.07-1C10.21,0,0,6.53,0,14.55V18.1a7.42,7.42,0,0,0,7.41,7.4h.52a7.39,7.39,0,0,1-3.56-6.31V15.7c0-8,10.21-14.56,22.75-14.56a52.21,52.21,0,0,1,8.07,1l1.69.28c1,.16,2.06.36,3.1.58l-.39-.11Z" transform="translate(0 62.459)" fill="#586987"/>
    <path id="Path-5" data-name="Path" d="M20.559,54.949a17.66,17.66,0,0,1-18-15.44L.2,20.579a16.05,16.05,0,0,1,3.78-13.1,22.15,22.15,0,0,1,33.19,0,16,16,0,0,1,3.77,13.14l-2.35,18.83a17.69,17.69,0,0,1-18.03,15.5Z" transform="translate(23.431 0)" fill="#f7bfaf"/>
    <path id="Path-6" data-name="Path" d="M6.123,27.35,3.233,4.17A18.9,18.9,0,0,1,3.013,0,15.84,15.84,0,0,0,.2,11.82l2.36,18.93a17.66,17.66,0,0,0,18,15.44,20,20,0,0,0,3.59-.32C14.683,44.35,7.643,37.29,6.123,27.35Z" transform="translate(23.427 8.729)" fill="#f4a48d"/>
    <path id="Path-7" data-name="Path" d="M20.559,54.949a17.66,17.66,0,0,1-18-15.44L.2,20.579a16.05,16.05,0,0,1,3.78-13.1,22.15,22.15,0,0,1,33.19,0,16,16,0,0,1,3.77,13.14l-2.35,18.83a17.69,17.69,0,0,1-18.03,15.5Z" transform="translate(23.431 0)" fill="#f7bfaf"/>
    <path id="Path-8" data-name="Path" d="M6.123,27.35,3.233,4.17A18.9,18.9,0,0,1,3.013,0,15.84,15.84,0,0,0,.2,11.82l2.36,18.93a17.66,17.66,0,0,0,18,15.44,20,20,0,0,0,3.59-.32C14.683,44.35,7.643,37.29,6.123,27.35Z" transform="translate(23.427 8.729)" fill="#f4a48d"/>
    <path id="Path-9" data-name="Path" d="M3.979,7.47A16.05,16.05,0,0,0,.2,20.57l1.5,12L20.5,0A22.27,22.27,0,0,0,3.979,7.47Z" transform="translate(23.431 0.009)" fill="#f8c8bb"/>
    <path id="Path-10" data-name="Path" d="M3.233,4.17A18.9,18.9,0,0,1,3.013,0,15.84,15.84,0,0,0,.2,11.82l1.5,12,3.28-5.68Z" transform="translate(23.427 8.729)" fill="#f7bbaa"/>
  </g>
</svg>
