<svg id="Icon_beneficts_viajes" data-name="Icon/beneficts/viajes" xmlns="http://www.w3.org/2000/svg" width="65" height="64" viewBox="0 0 65 64">
  <g id="Group_14" data-name="Group 14" transform="translate(0.722 0.711)">
    <path id="Path" d="M36.387,26.062H19.494A8.692,8.692,0,0,1,12.012,21.8L.138,1.543A1.017,1.017,0,0,1,.14.516,1.05,1.05,0,0,1,1.041,0H47.047A5.577,5.577,0,0,1,51.9,2.764a5.4,5.4,0,0,1-.058,5.52L43.9,21.874A8.7,8.7,0,0,1,36.387,26.062Z" transform="translate(11.013 11.524)" fill="#4fd0d0"/>
    <path id="Path-2" data-name="Path" d="M24.924,2.731A5.505,5.505,0,0,0,20.114,0H15.275L0,26.02H9.476a8.692,8.692,0,0,0,7.489-4.267L24.909,8.164a5.34,5.34,0,0,0,.014-5.433Z" transform="translate(37.924 11.566)" fill="#69d7d7"/>
    <rect id="Rectangle" width="32.139" height="2.062" transform="translate(19.168 55.406)" fill="#95a2bf"/>
    <path id="Path-3" data-name="Path" d="M.14.5a1.017,1.017,0,0,0,0,1.031L12.014,21.781a7.947,7.947,0,0,0,6.9,4.267,11.488,11.488,0,0,0-1.517-4.636l-.722-1.252L4.856,0H1.043A1.036,1.036,0,0,0,.14.5Z" transform="translate(11.011 11.58)" fill="#59bac6"/>
    <path id="Path-4" data-name="Path" d="M26.123,34.535,25.4,33.276h0L7.15,2.137A4.412,4.412,0,0,0,3.359,0H1.134A1.052,1.052,0,0,0,.155.491a1.018,1.018,0,0,0,0,1.08,1.052,1.052,0,0,0,.979.487H3.359A2.311,2.311,0,0,1,5.337,3.182l18.994,32.4a6.371,6.371,0,0,1,0,6.464L18.251,52.405a1.017,1.017,0,0,0-.112.79,1.033,1.033,0,0,0,.494.632,1.016,1.016,0,0,0,.527.142,1.028,1.028,0,0,0,.9-.519l6.081-10.368A8.42,8.42,0,0,0,26.123,34.535Z" transform="translate(0.022 0.014)" fill="#95a2bf"/>
    <path id="Path-5" data-name="Path" d="M3.359,0H1.134A1.052,1.052,0,0,0,.155.491a1.018,1.018,0,0,0,0,1.08,1.052,1.052,0,0,0,.979.487H3.359A2.311,2.311,0,0,1,5.337,3.182L17.666,24.217l1.206-2.062L7.15,2.151A4.412,4.412,0,0,0,3.359,0Z" transform="translate(0 0)" fill="#b0b9cf"/>
    <path id="Path-6" data-name="Path" d="M10.518,10.354A6.231,6.231,0,0,1,3.8,11.67,6.031,6.031,0,0,1,3.8.462a6.231,6.231,0,0,1,6.714,1.316A6.007,6.007,0,0,1,10.518,10.354Z" transform="translate(45.563 50.371)" fill="#2e4369"/>
    <path id="Path-7" data-name="Path" d="M9.558,9.429a5.667,5.667,0,0,1-7.92-.012,5.458,5.458,0,0,1,0-7.8,5.667,5.667,0,0,1,7.92-.012,5.465,5.465,0,0,1,0,7.822Z" transform="translate(45.735 50.521)" fill="#394d71"/>
    <path id="Path-8" data-name="Path" d="M.979.961A3.249,3.249,0,0,0,.254,4.542a3.357,3.357,0,0,0,6.166,0A3.249,3.249,0,0,0,5.695.961,3.374,3.374,0,0,0,.979.961Z" transform="translate(48.414 53.158)" fill="#8897b7"/>
    <path id="Path-9" data-name="Path" d="M.856.841a2.849,2.849,0,0,0,0,4.072,2.957,2.957,0,0,0,4.136,0,2.849,2.849,0,0,0,0-4.072,2.965,2.965,0,0,0-4.138,0Z" transform="translate(49.086 53.847)" fill="#7b8baf"/>
    <path id="Path-10" data-name="Path" d="M10.518,10.354A6.231,6.231,0,0,1,3.8,11.67,6.031,6.031,0,0,1,3.8.462a6.231,6.231,0,0,1,6.714,1.316A6.007,6.007,0,0,1,10.518,10.354Z" transform="translate(10.34 50.371)" fill="#2e4369"/>
    <path id="Path-11" data-name="Path" d="M9.558,9.429a5.667,5.667,0,0,1-7.92-.012,5.458,5.458,0,0,1,0-7.8,5.667,5.667,0,0,1,7.92-.012,5.459,5.459,0,0,1,0,7.822Z" transform="translate(10.505 50.521)" fill="#394d71"/>
    <path id="Path-12" data-name="Path" d="M.979.961A3.249,3.249,0,0,0,.254,4.542a3.357,3.357,0,0,0,6.166,0A3.249,3.249,0,0,0,5.695.961,3.374,3.374,0,0,0,.979.961Z" transform="translate(13.163 53.158)" fill="#8897b7"/>
    <path id="Path-13" data-name="Path" d="M.856.841a2.849,2.849,0,0,0,0,4.072,2.957,2.957,0,0,0,4.136,0,2.849,2.849,0,0,0,0-4.072A2.965,2.965,0,0,0,.856.841Z" transform="translate(13.871 53.847)" fill="#7b8baf"/>
  </g>
</svg>
